<svg xmlns="http://www.w3.org/2000/svg" width="32" height="32"><path d="M17.245 27.976A12.54 12.54 0 0 1 17 25.5a12.46 12.46 0 0 1 3.564-8.741 18.602 18.602 0 0 0-4.867-4.697c-1.939 3.896-5.852 6.638-10.43 6.915C6.4 24.138 10.999 28 16.5 28c.25 0 .499-.008.745-.024zm.999-.107a11.447 11.447 0 0 0 5.629-2.543 18.385 18.385 0 0 0-2.738-7.718 11.46 11.46 0 0 0-3.136 7.892c0 .812.084 1.604.244 2.369zm9.263-14.711c-1.394-4.596-5.587-7.975-10.595-8.151.058.489.088.988.088 1.493 0 1.639-.315 3.203-.888 4.637a19.625 19.625 0 0 1 5.187 4.929 12.456 12.456 0 0 1 6.209-2.909zm.249.973a11.46 11.46 0 0 0-5.888 2.766 19.369 19.369 0 0 1 2.901 7.595c2-2.069 3.231-4.887 3.231-7.992 0-.812-.084-1.604-.244-2.369zM5.095 17.985a11.504 11.504 0 0 0 9.75-6.455 18.392 18.392 0 0 0-7.17-2.404A11.453 11.453 0 0 0 5 16.5c0 .503.032.999.095 1.485zm10.81-12.97A11.461 11.461 0 0 0 8.508 8.23a19.385 19.385 0 0 1 6.737 2.375C15.733 9.33 16 7.946 16 6.499c0-.503-.032-.999-.095-1.485zM4.159 18.498A12.538 12.538 0 0 1 4 16.5C4 9.596 9.596 4 16.5 4S29 9.596 29 16.5 23.404 29 16.5 29c-6.048 0-11.093-4.296-12.25-10.002a11.838 11.838 0 0 1-.091-.499z"/></svg>